<svg width="16" height="22" viewBox="0 0 16 22" fill="none" xmlns="http://www.w3.org/2000/svg">
<path fill-rule="evenodd" clip-rule="evenodd" d="M11.5 7V5C11.5 3.07 9.93 1.5 8 1.5C6.07 1.5 4.5 3.07 4.5 5V7H11.5ZM3 7V5C3 2.24 5.24 0 8 0C10.76 0 13 2.24 13 5V7H13.25C14.77 7 16 8.23 16 9.75V19.25C16 20.77 14.77 22 13.25 22H2.75C1.23 22 0 20.77 0 19.25V9.75C0 8.23 1.23 7 2.75 7H3ZM1.5 9.75C1.5 9.06 2.06 8.5 2.75 8.5H13.25C13.94 8.5 14.5 9.06 14.5 9.75V19.25C14.5 19.94 13.94 20.5 13.25 20.5H2.75C2.06 20.5 1.5 19.94 1.5 19.25V9.75ZM7.25 16.5C7.25 16.91 7.59 17.25 8 17.25C8.41 17.25 8.75 16.91 8.75 16.5V14.7901C9.19874 14.5312 9.5 14.0465 9.5 13.49C9.5 12.66 8.83 11.99 8 11.99C7.17 11.99 6.5 12.66 6.5 13.49C6.5 14.0465 6.80126 14.5312 7.25 14.7901V16.5Z" fill="black"/>
</svg>
